<svg id="visual" viewBox="0 0 1000 1000" width="1000" height="1000" xmlns="http://www.w3.org/2000/svg" xmlns:xlink="http://www.w3.org/1999/xlink" version="1.1"><g><g transform="translate(265 706)"><path d="M122.8 -98.8C144.2 -71.2 136 -21 123.6 26.1C111.1 73.2 94.4 117.2 62.2 134.9C30 152.6 -17.6 144 -63.4 124.6C-109.3 105.3 -153.3 75.2 -162.3 36.8C-171.2 -1.5 -145 -48.1 -112.1 -78.3C-79.2 -108.4 -39.6 -122.2 5.6 -126.7C50.8 -131.1 101.5 -126.3 122.8 -98.8Z" fill="#2e4aff"></path></g><g transform="translate(896 620)"><path d="M78.4 -71.8C99 -36.7 111.2 -4.3 107.9 30.4C104.6 65.1 85.8 102 51.8 125.2C17.8 148.3 -31.3 157.7 -71.1 141.1C-110.9 124.5 -141.4 81.8 -142.7 42.3C-143.9 2.8 -116 -33.7 -87.3 -70.6C-58.7 -107.5 -29.3 -144.8 -0.2 -144.7C28.9 -144.5 57.8 -106.9 78.4 -71.8Z" fill="#2e4aff"></path></g><g transform="translate(56 54)"><path d="M99.7 -66C134.2 -36.3 170.6 5.5 169.7 50.5C168.9 95.6 130.7 144 86.9 155.5C43.1 167 -6.4 141.6 -43.7 114.5C-81 87.5 -106 58.7 -113.2 26.1C-120.4 -6.4 -109.8 -42.7 -87.9 -69.6C-66.1 -96.5 -33 -113.9 -0.2 -113.8C32.6 -113.6 65.2 -95.8 99.7 -66Z" fill="#2e4aff"></path></g><g transform="translate(483 281)"><path d="M104.1 -78.2C128.3 -52.6 136.7 -9.8 128.8 31.1C120.8 71.9 96.4 110.7 61.2 127.9C26.1 145.1 -19.8 140.7 -57 121.5C-94.2 102.4 -122.7 68.4 -133.3 28.5C-144 -11.4 -136.7 -57.3 -111.5 -83.1C-86.3 -108.9 -43.2 -114.6 -1.6 -113.4C39.9 -112.1 79.9 -103.8 104.1 -78.2Z" fill="#2e4aff"></path></g><g transform="translate(964 57)"><path d="M69.1 -60.5C88.7 -30.4 103.3 -1.7 103.1 33.3C102.9 68.3 87.9 109.7 61.4 119.3C35 128.8 -2.8 106.5 -34.8 85.9C-66.9 65.2 -93.3 46.3 -100.7 20.9C-108.1 -4.4 -96.6 -36.1 -76.7 -66.3C-56.7 -96.5 -28.4 -125.1 -1.8 -123.6C24.7 -122.2 49.4 -90.6 69.1 -60.5Z" fill="#2e4aff"></path></g></g></svg>