<svg id="visual" viewBox="0 0 2000 500" width="2000" height="500" xmlns="http://www.w3.org/2000/svg" xmlns:xlink="http://www.w3.org/1999/xlink" version="1.1"><path d="M0 140L47.7 130.5C95.3 121 190.7 102 285.8 97.2C381 92.3 476 101.7 571.2 115.8C666.3 130 761.7 149 857 165.3C952.3 181.7 1047.7 195.3 1143 194.7C1238.3 194 1333.7 179 1428.8 171C1524 163 1619 162 1714.2 160.5C1809.3 159 1904.7 157 1952.3 156L2000 155L2000 501L1952.3 501C1904.7 501 1809.3 501 1714.2 501C1619 501 1524 501 1428.8 501C1333.7 501 1238.3 501 1143 501C1047.7 501 952.3 501 857 501C761.7 501 666.3 501 571.2 501C476 501 381 501 285.8 501C190.7 501 95.3 501 47.7 501L0 501Z" fill="#eff1f3"></path><path d="M0 190L47.7 203.5C95.3 217 190.7 244 285.8 255C381 266 476 261 571.2 248.7C666.3 236.3 761.7 216.7 857 220.5C952.3 224.3 1047.7 251.7 1143 259.5C1238.3 267.3 1333.7 255.7 1428.8 240.2C1524 224.7 1619 205.3 1714.2 206.7C1809.3 208 1904.7 230 1952.3 241L2000 252L2000 501L1952.3 501C1904.7 501 1809.3 501 1714.2 501C1619 501 1524 501 1428.8 501C1333.7 501 1238.3 501 1143 501C1047.7 501 952.3 501 857 501C761.7 501 666.3 501 571.2 501C476 501 381 501 285.8 501C190.7 501 95.3 501 47.7 501L0 501Z" fill="#eceff1"></path><path d="M0 310L47.7 306.8C95.3 303.7 190.7 297.3 285.8 302C381 306.7 476 322.3 571.2 331.5C666.3 340.7 761.7 343.3 857 339C952.3 334.7 1047.7 323.3 1143 320.7C1238.3 318 1333.7 324 1428.8 311.7C1524 299.3 1619 268.7 1714.2 266.5C1809.3 264.3 1904.7 290.7 1952.3 303.8L2000 317L2000 501L1952.3 501C1904.7 501 1809.3 501 1714.2 501C1619 501 1524 501 1428.8 501C1333.7 501 1238.3 501 1143 501C1047.7 501 952.3 501 857 501C761.7 501 666.3 501 571.2 501C476 501 381 501 285.8 501C190.7 501 95.3 501 47.7 501L0 501Z" fill="#eaecef"></path><path d="M0 368L47.7 357.3C95.3 346.7 190.7 325.3 285.8 329C381 332.7 476 361.3 571.2 364C666.3 366.7 761.7 343.3 857 329.8C952.3 316.3 1047.7 312.7 1143 315.2C1238.3 317.7 1333.7 326.3 1428.8 327C1524 327.7 1619 320.3 1714.2 329.3C1809.3 338.3 1904.7 363.7 1952.3 376.3L2000 389L2000 501L1952.3 501C1904.7 501 1809.3 501 1714.2 501C1619 501 1524 501 1428.8 501C1333.7 501 1238.3 501 1143 501C1047.7 501 952.3 501 857 501C761.7 501 666.3 501 571.2 501C476 501 381 501 285.8 501C190.7 501 95.3 501 47.7 501L0 501Z" fill="#e7eaed"></path><path d="M0 389L47.7 391.2C95.3 393.3 190.7 397.7 285.8 408.8C381 420 476 438 571.2 435.5C666.3 433 761.7 410 857 406C952.3 402 1047.7 417 1143 417.8C1238.3 418.7 1333.7 405.3 1428.8 406.5C1524 407.7 1619 423.3 1714.2 430C1809.3 436.7 1904.7 434.3 1952.3 433.2L2000 432L2000 501L1952.3 501C1904.7 501 1809.3 501 1714.2 501C1619 501 1524 501 1428.8 501C1333.7 501 1238.3 501 1143 501C1047.7 501 952.3 501 857 501C761.7 501 666.3 501 571.2 501C476 501 381 501 285.8 501C190.7 501 95.3 501 47.7 501L0 501Z" fill="#e5e7eb"></path></svg>