<svg id="visual" viewBox="0 0 900 450" width="900" height="450" xmlns="http://www.w3.org/2000/svg" xmlns:xlink="http://www.w3.org/1999/xlink" version="1.1"><rect x="0" y="0" width="900" height="450" fill="#f3f4f6"></rect><path d="M0 239L21.5 249.3C43 259.7 86 280.3 128.8 292.8C171.7 305.3 214.3 309.7 257.2 312.5C300 315.3 343 316.7 385.8 309.8C428.7 303 471.3 288 514.2 293.8C557 299.7 600 326.3 642.8 318.8C685.7 311.3 728.3 269.7 771.2 271C814 272.3 857 316.7 878.5 338.8L900 361L900 0L878.5 0C857 0 814 0 771.2 0C728.3 0 685.7 0 642.8 0C600 0 557 0 514.2 0C471.3 0 428.7 0 385.8 0C343 0 300 0 257.2 0C214.3 0 171.7 0 128.8 0C86 0 43 0 21.5 0L0 0Z" fill="#eeeff2"></path><path d="M0 212L21.5 223C43 234 86 256 128.8 252.8C171.7 249.7 214.3 221.3 257.2 205.5C300 189.7 343 186.3 385.8 194C428.7 201.7 471.3 220.3 514.2 239.5C557 258.7 600 278.3 642.8 280.3C685.7 282.3 728.3 266.7 771.2 255.3C814 244 857 237 878.5 233.5L900 230L900 0L878.5 0C857 0 814 0 771.2 0C728.3 0 685.7 0 642.8 0C600 0 557 0 514.2 0C471.3 0 428.7 0 385.8 0C343 0 300 0 257.2 0C214.3 0 171.7 0 128.8 0C86 0 43 0 21.5 0L0 0Z" fill="#eaebee"></path><path d="M0 223L21.5 212.8C43 202.7 86 182.3 128.8 182C171.7 181.7 214.3 201.3 257.2 206.8C300 212.3 343 203.7 385.8 203.3C428.7 203 471.3 211 514.2 208.2C557 205.3 600 191.7 642.8 184.2C685.7 176.7 728.3 175.3 771.2 183.7C814 192 857 210 878.5 219L900 228L900 0L878.5 0C857 0 814 0 771.2 0C728.3 0 685.7 0 642.8 0C600 0 557 0 514.2 0C471.3 0 428.7 0 385.8 0C343 0 300 0 257.2 0C214.3 0 171.7 0 128.8 0C86 0 43 0 21.5 0L0 0Z" fill="#e5e7eb"></path><path d="M0 142L21.5 143.8C43 145.7 86 149.3 128.8 144C171.7 138.7 214.3 124.3 257.2 116.8C300 109.3 343 108.7 385.8 114C428.7 119.3 471.3 130.7 514.2 129.7C557 128.7 600 115.3 642.8 118.3C685.7 121.3 728.3 140.7 771.2 140.3C814 140 857 120 878.5 110L900 100L900 0L878.5 0C857 0 814 0 771.2 0C728.3 0 685.7 0 642.8 0C600 0 557 0 514.2 0C471.3 0 428.7 0 385.8 0C343 0 300 0 257.2 0C214.3 0 171.7 0 128.8 0C86 0 43 0 21.5 0L0 0Z" fill="#dcdfe4"></path><path d="M0 85L21.5 82.7C43 80.3 86 75.7 128.8 77.2C171.7 78.7 214.3 86.3 257.2 85.3C300 84.3 343 74.7 385.8 76.3C428.7 78 471.3 91 514.2 94.8C557 98.7 600 93.3 642.8 94C685.7 94.7 728.3 101.3 771.2 103C814 104.7 857 101.3 878.5 99.7L900 98L900 0L878.5 0C857 0 814 0 771.2 0C728.3 0 685.7 0 642.8 0C600 0 557 0 514.2 0C471.3 0 428.7 0 385.8 0C343 0 300 0 257.2 0C214.3 0 171.7 0 128.8 0C86 0 43 0 21.5 0L0 0Z" fill="#d3d7de"></path></svg>