<svg id="visual" viewBox="0 0 1440 200" width="1440" height="200" xmlns="http://www.w3.org/2000/svg" xmlns:xlink="http://www.w3.org/1999/xlink" version="1.1"><path d="M0 128L80 128L80 78L160 78L160 82L240 82L240 101L320 101L320 139L400 139L400 62L480 62L480 121L560 121L560 80L640 80L640 63L720 63L720 62L800 62L800 125L880 125L880 60L960 60L960 86L1040 86L1040 125L1120 125L1120 94L1200 94L1200 106L1280 106L1280 136L1360 136L1360 97L1440 97L1440 60L1440 201L1440 201L1360 201L1360 201L1280 201L1280 201L1200 201L1200 201L1120 201L1120 201L1040 201L1040 201L960 201L960 201L880 201L880 201L800 201L800 201L720 201L720 201L640 201L640 201L560 201L560 201L480 201L480 201L400 201L400 201L320 201L320 201L240 201L240 201L160 201L160 201L80 201L80 201L0 201Z" fill="#1f2937"></path></svg>