<svg id="visual" viewBox="0 0 1080 200" width="1080" height="200" xmlns="http://www.w3.org/2000/svg" xmlns:xlink="http://www.w3.org/1999/xlink" version="1.1"><path d="M0 75L60 75L60 129L120 129L120 64L180 64L180 107L240 107L240 91L300 91L300 73L360 73L360 113L420 113L420 138L480 138L480 87L540 87L540 102L600 102L600 90L660 90L660 68L720 68L720 108L780 108L780 65L840 65L840 84L900 84L900 63L960 63L960 118L1020 118L1020 111L1080 111L1080 83L1080 201L1080 201L1020 201L1020 201L960 201L960 201L900 201L900 201L840 201L840 201L780 201L780 201L720 201L720 201L660 201L660 201L600 201L600 201L540 201L540 201L480 201L480 201L420 201L420 201L360 201L360 201L300 201L300 201L240 201L240 201L180 201L180 201L120 201L120 201L60 201L60 201L0 201Z" fill="#E5E7EB"></path></svg>