<svg id="visual" viewBox="0 0 1500 200" width="1500" height="200" xmlns="http://www.w3.org/2000/svg" xmlns:xlink="http://www.w3.org/1999/xlink" version="1.1"><path d="M0 47L65 47L65 80L130 80L130 123L196 123L196 148L261 148L261 132L326 132L326 74L391 74L391 104L457 104L457 132L522 132L522 51L587 51L587 126L652 126L652 79L717 79L717 90L783 90L783 103L848 103L848 123L913 123L913 90L978 90L978 52L1043 52L1043 87L1109 87L1109 132L1174 132L1174 116L1239 116L1239 142L1304 142L1304 44L1370 44L1370 156L1435 156L1435 40L1500 40L1500 71L1500 201L1500 201L1435 201L1435 201L1370 201L1370 201L1304 201L1304 201L1239 201L1239 201L1174 201L1174 201L1109 201L1109 201L1043 201L1043 201L978 201L978 201L913 201L913 201L848 201L848 201L783 201L783 201L717 201L717 201L652 201L652 201L587 201L587 201L522 201L522 201L457 201L457 201L391 201L391 201L326 201L326 201L261 201L261 201L196 201L196 201L130 201L130 201L65 201L65 201L0 201Z" fill="#1F2937"></path></svg>