<svg id="visual" viewBox="0 0 1000 200" width="1000" height="200" xmlns="http://www.w3.org/2000/svg" xmlns:xlink="http://www.w3.org/1999/xlink" version="1.1"><path d="M0 13L83.3 13C166.7 13 333.3 13 500 13.3C666.7 13.7 833.3 14.3 916.7 14.7L1000 15L1000 0L916.7 0C833.3 0 666.7 0 500 0C333.3 0 166.7 0 83.3 0L0 0Z" fill="#3a53ff"></path><path d="M0 51L83.3 50.7C166.7 50.3 333.3 49.7 500 51.3C666.7 53 833.3 57 916.7 59L1000 61L1000 13L916.7 12.7C833.3 12.3 666.7 11.7 500 11.3C333.3 11 166.7 11 83.3 11L0 11Z" fill="#2950eb"></path><path d="M0 59L83.3 58.7C166.7 58.3 333.3 57.7 500 59.3C666.7 61 833.3 65 916.7 67L1000 69L1000 59L916.7 57C833.3 55 666.7 51 500 49.3C333.3 47.7 166.7 48.3 83.3 48.7L0 49Z" fill="#194bd7"></path><path d="M0 67L83.3 66.7C166.7 66.3 333.3 65.7 500 67C666.7 68.3 833.3 71.7 916.7 73.3L1000 75L1000 67L916.7 65C833.3 63 666.7 59 500 57.3C333.3 55.7 166.7 56.3 83.3 56.7L0 57Z" fill="#0847c2"></path><path d="M0 75L83.3 75C166.7 75 333.3 75 500 76.3C666.7 77.7 833.3 80.3 916.7 81.7L1000 83L1000 73L916.7 71.3C833.3 69.7 666.7 66.3 500 65C333.3 63.7 166.7 64.3 83.3 64.7L0 65Z" fill="#0042ae"></path><path d="M0 101L83.3 101C166.7 101 333.3 101 500 101.7C666.7 102.3 833.3 103.7 916.7 104.3L1000 105L1000 81L916.7 79.7C833.3 78.3 666.7 75.7 500 74.3C333.3 73 166.7 73 83.3 73L0 73Z" fill="#003d9a"></path><path d="M0 109L83.3 109C166.7 109 333.3 109 500 109.7C666.7 110.3 833.3 111.7 916.7 112.3L1000 113L1000 103L916.7 102.3C833.3 101.7 666.7 100.3 500 99.7C333.3 99 166.7 99 83.3 99L0 99Z" fill="#003786"></path><path d="M0 123L83.3 122.3C166.7 121.7 333.3 120.3 500 121C666.7 121.7 833.3 124.3 916.7 125.7L1000 127L1000 111L916.7 110.3C833.3 109.7 666.7 108.3 500 107.7C333.3 107 166.7 107 83.3 107L0 107Z" fill="#013172"></path><path d="M0 137L83.3 136C166.7 135 333.3 133 500 133.3C666.7 133.7 833.3 136.3 916.7 137.7L1000 139L1000 125L916.7 123.7C833.3 122.3 666.7 119.7 500 119C333.3 118.3 166.7 119.7 83.3 120.3L0 121Z" fill="#072b5f"></path><path d="M0 153L83.3 153C166.7 153 333.3 153 500 153.3C666.7 153.7 833.3 154.3 916.7 154.7L1000 155L1000 137L916.7 135.7C833.3 134.3 666.7 131.7 500 131.3C333.3 131 166.7 133 83.3 134L0 135Z" fill="#0d254c"></path><path d="M0 159L83.3 159C166.7 159 333.3 159 500 159.7C666.7 160.3 833.3 161.7 916.7 162.3L1000 163L1000 153L916.7 152.7C833.3 152.3 666.7 151.7 500 151.3C333.3 151 166.7 151 83.3 151L0 151Z" fill="#101e39"></path><path d="M0 201L83.3 201C166.7 201 333.3 201 500 201C666.7 201 833.3 201 916.7 201L1000 201L1000 161L916.7 160.3C833.3 159.7 666.7 158.3 500 157.7C333.3 157 166.7 157 83.3 157L0 157Z" fill="#111827"></path></svg>