<svg id="visual" viewBox="0 0 1500 1500" width="1500" height="1500" xmlns="http://www.w3.org/2000/svg" xmlns:xlink="http://www.w3.org/1999/xlink" version="1.1"><g><g transform="translate(1288 1210)"><path d="M139.3 -174.2C171.9 -138.7 183.8 -86.6 195.6 -32.5C207.5 21.5 219.4 77.5 198.7 116.1C178.1 154.7 124.9 175.8 71.3 194.9C17.6 214.1 -36.4 231.2 -77.6 215.3C-118.7 199.3 -147.1 150.3 -164.4 103.2C-181.6 56.1 -187.8 11 -181.5 -33.2C-175.1 -77.3 -156.2 -120.5 -123.8 -156C-91.5 -191.6 -45.8 -219.6 3.8 -224.1C53.4 -228.7 106.7 -209.7 139.3 -174.2Z" fill="#0066ff"></path></g><g transform="translate(1384 242)"><path d="M105.3 -122.8C133.3 -101.9 150.7 -65.8 150.5 -31.7C150.4 2.4 132.7 34.4 114.7 66.8C96.7 99.3 78.4 132.3 51 143.9C23.6 155.5 -13 145.7 -43.3 129.9C-73.6 114.1 -97.8 92.3 -118.3 64.5C-138.9 36.8 -155.9 3.1 -154.9 -31.6C-153.9 -66.4 -134.9 -102.3 -106.1 -123C-77.3 -143.7 -38.6 -149.4 0 -149.4C38.6 -149.4 77.3 -143.7 105.3 -122.8Z" fill="#0066ff"></path></g><g transform="translate(9 1117)"><path d="M122.5 -152C151.7 -121.5 163.5 -76.2 164.3 -34.4C165.1 7.3 155.1 45.5 134.8 75.2C114.6 104.9 84.1 126.1 51.8 134.3C19.6 142.6 -14.4 137.8 -55.1 131.6C-95.8 125.4 -143.2 117.7 -170.2 89.3C-197.3 61 -204.1 11.9 -194.3 -32.6C-184.5 -77.2 -158.2 -117.1 -123 -146.6C-87.9 -176 -44 -194.9 1.4 -196.5C46.7 -198.1 93.3 -182.5 122.5 -152Z" fill="#0066ff"></path></g><g transform="translate(695 1035)"><path d="M75.7 -93.7C97 -72.3 112.5 -47.4 113.2 -23C113.9 1.4 99.7 25.4 84.3 45.5C68.9 65.5 52.2 81.6 29.7 96.1C7.1 110.6 -21.3 123.6 -46.3 118.3C-71.3 113 -92.8 89.5 -107.2 62.8C-121.6 36 -128.8 6 -122 -19.7C-115.3 -45.4 -94.6 -66.7 -72 -87.8C-49.3 -108.9 -24.6 -129.7 1.3 -131.3C27.2 -132.8 54.4 -115 75.7 -93.7Z" fill="#0066ff"></path></g><g transform="translate(142 335)"><path d="M115.2 -135.2C142 -114.8 151.5 -71.6 151.1 -32.7C150.7 6.2 140.5 40.7 124.4 74.7C108.2 108.8 86.1 142.3 54.6 156.6C23.1 171 -17.8 166.1 -53.9 151.5C-89.9 136.8 -121.1 112.4 -142.7 80C-164.2 47.6 -176.2 7.2 -171.9 -32.6C-167.7 -72.5 -147.2 -111.8 -115.9 -131.3C-84.5 -150.9 -42.3 -150.7 1 -151.8C44.2 -153 88.4 -155.5 115.2 -135.2Z" fill="#0066ff"></path></g><g transform="translate(832 458)"><path d="M57 -67.8C69.9 -57 73.7 -35.4 73.6 -16C73.5 3.4 69.3 20.5 62.8 40.4C56.3 60.3 47.3 82.9 29.8 95C12.3 107 -13.9 108.6 -36.4 100.3C-59 92 -77.9 74 -89.5 52.4C-101.1 30.8 -105.4 5.7 -100 -16.5C-94.7 -38.6 -79.8 -58 -61.5 -67.8C-43.2 -77.6 -21.6 -78 0.2 -78.2C22 -78.4 44 -78.6 57 -67.8Z" fill="#0066ff"></path></g></g></svg>