<svg id="visual" viewBox="0 0 1500 200" width="1500" height="200" xmlns="http://www.w3.org/2000/svg" xmlns:xlink="http://www.w3.org/1999/xlink" version="1.1"><path d="M0 94L65 94L65 65L130 65L130 25L196 25L196 161L261 161L261 19L326 19L326 88L391 88L391 169L457 169L457 157L522 157L522 25L587 25L587 139L652 139L652 97L717 97L717 174L783 174L783 141L848 141L848 98L913 98L913 132L978 132L978 189L1043 189L1043 39L1109 39L1109 24L1174 24L1174 124L1239 124L1239 53L1304 53L1304 11L1370 11L1370 60L1435 60L1435 142L1500 142L1500 118L1500 0L1500 0L1435 0L1435 0L1370 0L1370 0L1304 0L1304 0L1239 0L1239 0L1174 0L1174 0L1109 0L1109 0L1043 0L1043 0L978 0L978 0L913 0L913 0L848 0L848 0L783 0L783 0L717 0L717 0L652 0L652 0L587 0L587 0L522 0L522 0L457 0L457 0L391 0L391 0L326 0L326 0L261 0L261 0L196 0L196 0L130 0L130 0L65 0L65 0L0 0Z" fill="#3A53FF"></path></svg>