<svg id="visual" viewBox="0 0 1000 200" width="1000" height="200" xmlns="http://www.w3.org/2000/svg" xmlns:xlink="http://www.w3.org/1999/xlink" version="1.1"><path d="M0 33L83.3 34.7C166.7 36.3 333.3 39.7 500 40C666.7 40.3 833.3 37.7 916.7 36.3L1000 35L1000 0L916.7 0C833.3 0 666.7 0 500 0C333.3 0 166.7 0 83.3 0L0 0Z" fill="#1f2937"></path><path d="M0 41L83.3 42.7C166.7 44.3 333.3 47.7 500 48C666.7 48.3 833.3 45.7 916.7 44.3L1000 43L1000 33L916.7 34.3C833.3 35.7 666.7 38.3 500 38C333.3 37.7 166.7 34.3 83.3 32.7L0 31Z" fill="#1b2f49"></path><path d="M0 53L83.3 54.3C166.7 55.7 333.3 58.3 500 59C666.7 59.7 833.3 58.3 916.7 57.7L1000 57L1000 41L916.7 42.3C833.3 43.7 666.7 46.3 500 46C333.3 45.7 166.7 42.3 83.3 40.7L0 39Z" fill="#15355b"></path><path d="M0 61L83.3 62C166.7 63 333.3 65 500 65.7C666.7 66.3 833.3 65.7 916.7 65.3L1000 65L1000 55L916.7 55.7C833.3 56.3 666.7 57.7 500 57C333.3 56.3 166.7 53.7 83.3 52.3L0 51Z" fill="#0c3a6e"></path><path d="M0 69L83.3 70C166.7 71 333.3 73 500 73.7C666.7 74.3 833.3 73.7 916.7 73.3L1000 73L1000 63L916.7 63.3C833.3 63.7 666.7 64.3 500 63.7C333.3 63 166.7 61 83.3 60L0 59Z" fill="#013f80"></path><path d="M0 97L83.3 97.3C166.7 97.7 333.3 98.3 500 98.3C666.7 98.3 833.3 97.7 916.7 97.3L1000 97L1000 71L916.7 71.3C833.3 71.7 666.7 72.3 500 71.7C333.3 71 166.7 69 83.3 68L0 67Z" fill="#004493"></path><path d="M0 105L83.3 105.3C166.7 105.7 333.3 106.3 500 106.3C666.7 106.3 833.3 105.7 916.7 105.3L1000 105L1000 95L916.7 95.3C833.3 95.7 666.7 96.3 500 96.3C333.3 96.3 166.7 95.7 83.3 95.3L0 95Z" fill="#0048a5"></path><path d="M0 119L83.3 119C166.7 119 333.3 119 500 119.7C666.7 120.3 833.3 121.7 916.7 122.3L1000 123L1000 103L916.7 103.3C833.3 103.7 666.7 104.3 500 104.3C333.3 104.3 166.7 103.7 83.3 103.3L0 103Z" fill="#004bb8"></path><path d="M0 131L83.3 131C166.7 131 333.3 131 500 131.3C666.7 131.7 833.3 132.3 916.7 132.7L1000 133L1000 121L916.7 120.3C833.3 119.7 666.7 118.3 500 117.7C333.3 117 166.7 117 83.3 117L0 117Z" fill="#004eca"></path><path d="M0 153L83.3 152.3C166.7 151.7 333.3 150.3 500 149.7C666.7 149 833.3 149 916.7 149L1000 149L1000 131L916.7 130.7C833.3 130.3 666.7 129.7 500 129.3C333.3 129 166.7 129 83.3 129L0 129Z" fill="#1051dc"></path><path d="M0 161L83.3 161C166.7 161 333.3 161 500 160.3C666.7 159.7 833.3 158.3 916.7 157.7L1000 157L1000 147L916.7 147C833.3 147 666.7 147 500 147.7C333.3 148.3 166.7 149.7 83.3 150.3L0 151Z" fill="#2652ee"></path><path d="M0 201L83.3 201C166.7 201 333.3 201 500 201C666.7 201 833.3 201 916.7 201L1000 201L1000 155L916.7 155.7C833.3 156.3 666.7 157.7 500 158.3C333.3 159 166.7 159 83.3 159L0 159Z" fill="#3a53ff"></path></svg>