<svg id="visual" viewBox="0 0 1000 200" width="1000" height="200" xmlns="http://www.w3.org/2000/svg" xmlns:xlink="http://www.w3.org/1999/xlink" version="1.1"><path d="M0 61L23.8 61C47.7 61 95.3 61 143 57.5C190.7 54 238.3 47 286 44.3C333.7 41.7 381.3 43.3 428.8 55.2C476.3 67 523.7 89 571.2 99.2C618.7 109.3 666.3 107.7 714 96C761.7 84.3 809.3 62.7 857 61.8C904.7 61 952.3 81 976.2 91L1000 101L1000 201L976.2 201C952.3 201 904.7 201 857 201C809.3 201 761.7 201 714 201C666.3 201 618.7 201 571.2 201C523.7 201 476.3 201 428.8 201C381.3 201 333.7 201 286 201C238.3 201 190.7 201 143 201C95.3 201 47.7 201 23.8 201L0 201Z" fill="#7d89ff"></path><path d="M0 105L23.8 102.8C47.7 100.7 95.3 96.3 143 95.7C190.7 95 238.3 98 286 99.3C333.7 100.7 381.3 100.3 428.8 96.2C476.3 92 523.7 84 571.2 77C618.7 70 666.3 64 714 65.8C761.7 67.7 809.3 77.3 857 81.8C904.7 86.3 952.3 85.7 976.2 85.3L1000 85L1000 201L976.2 201C952.3 201 904.7 201 857 201C809.3 201 761.7 201 714 201C666.3 201 618.7 201 571.2 201C523.7 201 476.3 201 428.8 201C381.3 201 333.7 201 286 201C238.3 201 190.7 201 143 201C95.3 201 47.7 201 23.8 201L0 201Z" fill="#6574ff"></path><path d="M0 124L23.8 126.3C47.7 128.7 95.3 133.3 143 134.8C190.7 136.3 238.3 134.7 286 135.2C333.7 135.7 381.3 138.3 428.8 130.3C476.3 122.3 523.7 103.7 571.2 103.3C618.7 103 666.3 121 714 125.3C761.7 129.7 809.3 120.3 857 110.3C904.7 100.3 952.3 89.7 976.2 84.3L1000 79L1000 201L976.2 201C952.3 201 904.7 201 857 201C809.3 201 761.7 201 714 201C666.3 201 618.7 201 571.2 201C523.7 201 476.3 201 428.8 201C381.3 201 333.7 201 286 201C238.3 201 190.7 201 143 201C95.3 201 47.7 201 23.8 201L0 201Z" fill="#4a5eff"></path><path d="M0 145L23.8 138.3C47.7 131.7 95.3 118.3 143 119.2C190.7 120 238.3 135 286 142.5C333.7 150 381.3 150 428.8 149.8C476.3 149.7 523.7 149.3 571.2 144C618.7 138.7 666.3 128.3 714 122.8C761.7 117.3 809.3 116.7 857 122.2C904.7 127.7 952.3 139.3 976.2 145.2L1000 151L1000 201L976.2 201C952.3 201 904.7 201 857 201C809.3 201 761.7 201 714 201C666.3 201 618.7 201 571.2 201C523.7 201 476.3 201 428.8 201C381.3 201 333.7 201 286 201C238.3 201 190.7 201 143 201C95.3 201 47.7 201 23.8 201L0 201Z" fill="#374df2"></path><path d="M0 135L23.8 140.7C47.7 146.3 95.3 157.7 143 159C190.7 160.3 238.3 151.7 286 146.2C333.7 140.7 381.3 138.3 428.8 142.5C476.3 146.7 523.7 157.3 571.2 161C618.7 164.7 666.3 161.3 714 157.8C761.7 154.3 809.3 150.7 857 147C904.7 143.3 952.3 139.7 976.2 137.8L1000 136L1000 201L976.2 201C952.3 201 904.7 201 857 201C809.3 201 761.7 201 714 201C666.3 201 618.7 201 571.2 201C523.7 201 476.3 201 428.8 201C381.3 201 333.7 201 286 201C238.3 201 190.7 201 143 201C95.3 201 47.7 201 23.8 201L0 201Z" fill="#3043d9"></path><path d="M0 182L23.8 182C47.7 182 95.3 182 143 180.2C190.7 178.3 238.3 174.7 286 171.5C333.7 168.3 381.3 165.7 428.8 165C476.3 164.3 523.7 165.7 571.2 166.8C618.7 168 666.3 169 714 171.8C761.7 174.7 809.3 179.3 857 177C904.7 174.7 952.3 165.3 976.2 160.7L1000 156L1000 201L976.2 201C952.3 201 904.7 201 857 201C809.3 201 761.7 201 714 201C666.3 201 618.7 201 571.2 201C523.7 201 476.3 201 428.8 201C381.3 201 333.7 201 286 201C238.3 201 190.7 201 143 201C95.3 201 47.7 201 23.8 201L0 201Z" fill="#2838c0"></path></svg>