<?xml version="1.0" standalone="no"?>
<svg xmlns:xlink="http://www.w3.org/1999/xlink" id="wave" style="transform:rotate(0deg); transition: 0.3s" viewBox="0 0 1440 290" version="1.1" xmlns="http://www.w3.org/2000/svg"><defs><linearGradient id="sw-gradient-0" x1="0" x2="0" y1="1" y2="0"><stop stop-color="rgba(58, 83, 255, 1)" offset="0%"/><stop stop-color="rgba(194.454, 202.137, 255, 1)" offset="100%"/></linearGradient></defs><path style="transform:translate(0, 0px); opacity:1" fill="url(#sw-gradient-0)" d="M0,145L40,149.8C80,155,160,164,240,159.5C320,155,400,135,480,149.8C560,164,640,213,720,236.8C800,261,880,261,960,232C1040,203,1120,145,1200,125.7C1280,106,1360,126,1440,125.7C1520,126,1600,106,1680,116C1760,126,1840,164,1920,154.7C2000,145,2080,87,2160,96.7C2240,106,2320,184,2400,203C2480,222,2560,184,2640,145C2720,106,2800,68,2880,48.3C2960,29,3040,29,3120,62.8C3200,97,3280,164,3360,193.3C3440,222,3520,213,3600,217.5C3680,222,3760,242,3840,212.7C3920,184,4000,106,4080,101.5C4160,97,4240,164,4320,183.7C4400,203,4480,174,4560,159.5C4640,145,4720,145,4800,135.3C4880,126,4960,106,5040,106.3C5120,106,5200,126,5280,111.2C5360,97,5440,48,5520,67.7C5600,87,5680,174,5720,217.5L5760,261L5760,290L5720,290C5680,290,5600,290,5520,290C5440,290,5360,290,5280,290C5200,290,5120,290,5040,290C4960,290,4880,290,4800,290C4720,290,4640,290,4560,290C4480,290,4400,290,4320,290C4240,290,4160,290,4080,290C4000,290,3920,290,3840,290C3760,290,3680,290,3600,290C3520,290,3440,290,3360,290C3280,290,3200,290,3120,290C3040,290,2960,290,2880,290C2800,290,2720,290,2640,290C2560,290,2480,290,2400,290C2320,290,2240,290,2160,290C2080,290,2000,290,1920,290C1840,290,1760,290,1680,290C1600,290,1520,290,1440,290C1360,290,1280,290,1200,290C1120,290,1040,290,960,290C880,290,800,290,720,290C640,290,560,290,480,290C400,290,320,290,240,290C160,290,80,290,40,290L0,290Z"/><defs><linearGradient id="sw-gradient-1" x1="0" x2="0" y1="1" y2="0"><stop stop-color="rgba(58, 83, 255, 1)" offset="0%"/><stop stop-color="rgba(191.574, 199.623, 255, 1)" offset="100%"/></linearGradient></defs><path style="transform:translate(0, 50px); opacity:0.9" fill="url(#sw-gradient-1)" d="M0,0L40,19.3C80,39,160,77,240,106.3C320,135,400,155,480,145C560,135,640,97,720,87C800,77,880,97,960,116C1040,135,1120,155,1200,164.3C1280,174,1360,174,1440,169.2C1520,164,1600,155,1680,159.5C1760,164,1840,184,1920,183.7C2000,184,2080,164,2160,169.2C2240,174,2320,203,2400,207.8C2480,213,2560,193,2640,183.7C2720,174,2800,174,2880,178.8C2960,184,3040,193,3120,193.3C3200,193,3280,184,3360,193.3C3440,203,3520,232,3600,203C3680,174,3760,87,3840,43.5C3920,0,4000,0,4080,9.7C4160,19,4240,39,4320,77.3C4400,116,4480,174,4560,203C4640,232,4720,232,4800,193.3C4880,155,4960,77,5040,38.7C5120,0,5200,0,5280,43.5C5360,87,5440,174,5520,203C5600,232,5680,203,5720,188.5L5760,174L5760,290L5720,290C5680,290,5600,290,5520,290C5440,290,5360,290,5280,290C5200,290,5120,290,5040,290C4960,290,4880,290,4800,290C4720,290,4640,290,4560,290C4480,290,4400,290,4320,290C4240,290,4160,290,4080,290C4000,290,3920,290,3840,290C3760,290,3680,290,3600,290C3520,290,3440,290,3360,290C3280,290,3200,290,3120,290C3040,290,2960,290,2880,290C2800,290,2720,290,2640,290C2560,290,2480,290,2400,290C2320,290,2240,290,2160,290C2080,290,2000,290,1920,290C1840,290,1760,290,1680,290C1600,290,1520,290,1440,290C1360,290,1280,290,1200,290C1120,290,1040,290,960,290C880,290,800,290,720,290C640,290,560,290,480,290C400,290,320,290,240,290C160,290,80,290,40,290L0,290Z"/></svg>