<svg id="visual" viewBox="0 0 2000 500" width="2000" height="500" xmlns="http://www.w3.org/2000/svg" xmlns:xlink="http://www.w3.org/1999/xlink" version="1.1"><path d="M0 312L47.7 311.7C95.3 311.3 190.7 310.7 285.8 327.7C381 344.7 476 379.3 571.2 375C666.3 370.7 761.7 327.3 857 318C952.3 308.7 1047.7 333.3 1143 328.3C1238.3 323.3 1333.7 288.7 1428.8 290.5C1524 292.3 1619 330.7 1714.2 348.2C1809.3 365.7 1904.7 362.3 1952.3 360.7L2000 359L2000 0L1952.3 0C1904.7 0 1809.3 0 1714.2 0C1619 0 1524 0 1428.8 0C1333.7 0 1238.3 0 1143 0C1047.7 0 952.3 0 857 0C761.7 0 666.3 0 571.2 0C476 0 381 0 285.8 0C190.7 0 95.3 0 47.7 0L0 0Z" fill="#eff1f3"></path><path d="M0 339L47.7 320.3C95.3 301.7 190.7 264.3 285.8 255.5C381 246.7 476 266.3 571.2 283.5C666.3 300.7 761.7 315.3 857 306.8C952.3 298.3 1047.7 266.7 1143 249C1238.3 231.3 1333.7 227.7 1428.8 222.3C1524 217 1619 210 1714.2 209.7C1809.3 209.3 1904.7 215.7 1952.3 218.8L2000 222L2000 0L1952.3 0C1904.7 0 1809.3 0 1714.2 0C1619 0 1524 0 1428.8 0C1333.7 0 1238.3 0 1143 0C1047.7 0 952.3 0 857 0C761.7 0 666.3 0 571.2 0C476 0 381 0 285.8 0C190.7 0 95.3 0 47.7 0L0 0Z" fill="#eceff1"></path><path d="M0 182L47.7 187.2C95.3 192.3 190.7 202.7 285.8 211.5C381 220.3 476 227.7 571.2 237C666.3 246.3 761.7 257.7 857 246C952.3 234.3 1047.7 199.7 1143 188.5C1238.3 177.3 1333.7 189.7 1428.8 201.2C1524 212.7 1619 223.3 1714.2 218C1809.3 212.7 1904.7 191.3 1952.3 180.7L2000 170L2000 0L1952.3 0C1904.7 0 1809.3 0 1714.2 0C1619 0 1524 0 1428.8 0C1333.7 0 1238.3 0 1143 0C1047.7 0 952.3 0 857 0C761.7 0 666.3 0 571.2 0C476 0 381 0 285.8 0C190.7 0 95.3 0 47.7 0L0 0Z" fill="#eaecef"></path><path d="M0 105L47.7 110.8C95.3 116.7 190.7 128.3 285.8 134.7C381 141 476 142 571.2 151C666.3 160 761.7 177 857 178.8C952.3 180.7 1047.7 167.3 1143 160.5C1238.3 153.7 1333.7 153.3 1428.8 154.5C1524 155.7 1619 158.3 1714.2 152.2C1809.3 146 1904.7 131 1952.3 123.5L2000 116L2000 0L1952.3 0C1904.7 0 1809.3 0 1714.2 0C1619 0 1524 0 1428.8 0C1333.7 0 1238.3 0 1143 0C1047.7 0 952.3 0 857 0C761.7 0 666.3 0 571.2 0C476 0 381 0 285.8 0C190.7 0 95.3 0 47.7 0L0 0Z" fill="#e7eaed"></path><path d="M0 63L47.7 67.7C95.3 72.3 190.7 81.7 285.8 84.5C381 87.3 476 83.7 571.2 81.5C666.3 79.3 761.7 78.7 857 81C952.3 83.3 1047.7 88.7 1143 84.7C1238.3 80.7 1333.7 67.3 1428.8 63.3C1524 59.3 1619 64.7 1714.2 64.8C1809.3 65 1904.7 60 1952.3 57.5L2000 55L2000 0L1952.3 0C1904.7 0 1809.3 0 1714.2 0C1619 0 1524 0 1428.8 0C1333.7 0 1238.3 0 1143 0C1047.7 0 952.3 0 857 0C761.7 0 666.3 0 571.2 0C476 0 381 0 285.8 0C190.7 0 95.3 0 47.7 0L0 0Z" fill="#e5e7eb"></path></svg>