<svg id="visual" viewBox="0 0 2000 500" width="2000" height="500" xmlns="http://www.w3.org/2000/svg" xmlns:xlink="http://www.w3.org/1999/xlink" version="1.1"><path d="M0 186L47.7 186.3C95.3 186.7 190.7 187.3 285.8 170.3C381 153.3 476 118.7 571.2 123C666.3 127.3 761.7 170.7 857 180C952.3 189.3 1047.7 164.7 1143 169.7C1238.3 174.7 1333.7 209.3 1428.8 207.5C1524 205.7 1619 167.3 1714.2 149.8C1809.3 132.3 1904.7 135.7 1952.3 137.3L2000 139L2000 501L1952.3 501C1904.7 501 1809.3 501 1714.2 501C1619 501 1524 501 1428.8 501C1333.7 501 1238.3 501 1143 501C1047.7 501 952.3 501 857 501C761.7 501 666.3 501 571.2 501C476 501 381 501 285.8 501C190.7 501 95.3 501 47.7 501L0 501Z" fill="#eff1f3"></path><path d="M0 159L47.7 177.7C95.3 196.3 190.7 233.7 285.8 242.5C381 251.3 476 231.7 571.2 214.5C666.3 197.3 761.7 182.7 857 191.2C952.3 199.7 1047.7 231.3 1143 249C1238.3 266.7 1333.7 270.3 1428.8 275.7C1524 281 1619 288 1714.2 288.3C1809.3 288.7 1904.7 282.3 1952.3 279.2L2000 276L2000 501L1952.3 501C1904.7 501 1809.3 501 1714.2 501C1619 501 1524 501 1428.8 501C1333.7 501 1238.3 501 1143 501C1047.7 501 952.3 501 857 501C761.7 501 666.3 501 571.2 501C476 501 381 501 285.8 501C190.7 501 95.3 501 47.7 501L0 501Z" fill="#eceff1"></path><path d="M0 316L47.7 310.8C95.3 305.7 190.7 295.3 285.8 286.5C381 277.7 476 270.3 571.2 261C666.3 251.7 761.7 240.3 857 252C952.3 263.7 1047.7 298.3 1143 309.5C1238.3 320.7 1333.7 308.3 1428.8 296.8C1524 285.3 1619 274.7 1714.2 280C1809.3 285.3 1904.7 306.7 1952.3 317.3L2000 328L2000 501L1952.3 501C1904.7 501 1809.3 501 1714.2 501C1619 501 1524 501 1428.8 501C1333.7 501 1238.3 501 1143 501C1047.7 501 952.3 501 857 501C761.7 501 666.3 501 571.2 501C476 501 381 501 285.8 501C190.7 501 95.3 501 47.7 501L0 501Z" fill="#eaecef"></path><path d="M0 393L47.7 387.2C95.3 381.3 190.7 369.7 285.8 363.3C381 357 476 356 571.2 347C666.3 338 761.7 321 857 319.2C952.3 317.3 1047.7 330.7 1143 337.5C1238.3 344.3 1333.7 344.7 1428.8 343.5C1524 342.3 1619 339.7 1714.2 345.8C1809.3 352 1904.7 367 1952.3 374.5L2000 382L2000 501L1952.3 501C1904.7 501 1809.3 501 1714.2 501C1619 501 1524 501 1428.8 501C1333.7 501 1238.3 501 1143 501C1047.7 501 952.3 501 857 501C761.7 501 666.3 501 571.2 501C476 501 381 501 285.8 501C190.7 501 95.3 501 47.7 501L0 501Z" fill="#e7eaed"></path><path d="M0 435L47.7 430.3C95.3 425.7 190.7 416.3 285.8 413.5C381 410.7 476 414.3 571.2 416.5C666.3 418.7 761.7 419.3 857 417C952.3 414.7 1047.7 409.3 1143 413.3C1238.3 417.3 1333.7 430.7 1428.8 434.7C1524 438.7 1619 433.3 1714.2 433.2C1809.3 433 1904.7 438 1952.3 440.5L2000 443L2000 501L1952.3 501C1904.7 501 1809.3 501 1714.2 501C1619 501 1524 501 1428.8 501C1333.7 501 1238.3 501 1143 501C1047.7 501 952.3 501 857 501C761.7 501 666.3 501 571.2 501C476 501 381 501 285.8 501C190.7 501 95.3 501 47.7 501L0 501Z" fill="#e5e7eb"></path></svg>